# xmcd
#
# Track frame offsets:
#	150
#	16106
#	33129
#	55838
#	72858
#	89012
#	107663
#	134537
#	154301
#	173663
#	194649
#
# Disc length: 2843 seconds
#
# Revision: 1
# Processed by: cddbd v1.5.1PL0 Copyright (c) Steve Scherf et al.
# Submitted via: dBpowerAMP V4.0
#
DISCID=910b190b
DTITLE=Midnight Blues - Holy water
DYEAR=2000
DGENRE=Blues
TTITLE0=Honky tonk blues
TTITLE1=little dreamer
TTITLE2=Party in the house
TTITLE3=Holy water
TTITLE4=Just a little bit
TTITLE5=Sweet home california
TTITLE6=Sweet sister
TTITLE7=High, high, high
TTITLE8=You and me
TTITLE9=Midnight magic
TTITLE10=i got love
EXTD=
EXTT0=
EXTT1=
EXTT2=
EXTT3=
EXTT4=
EXTT5=
EXTT6=
EXTT7=
EXTT8=
EXTT9=
EXTT10=
PLAYORDER=
